<?xml version="1.0" encoding="UTF-8"?>
<svg id="Laag_2" data-name="Laag 2" xmlns="http://www.w3.org/2000/svg" viewBox="0 0 60.15 19.5">
  <defs>
    <style>
      .cls-1 {
        fill: #fff;
      }

      .cls-2 {
        fill: none;
        stroke: #DC2625;
        stroke-linecap: round;
        stroke-linejoin: round;
        stroke-width: 1.5px;
      }
    </style>
  </defs>
  <g id="Laag_1-2" data-name="Laag 1">
    <path class="cls-2" d="M6.75,10.5l2.25,2.25,3.75-5.25M18.75,9.75c0,4.97-4.03,9-9,9S.75,14.72.75,9.75,4.78.75,9.75.75s9,4.03,9,9Z"/>
    <g>
      <path class="cls-1" d="M33.14,5.47c.22,0,.39.07.52.21.13.14.2.31.2.53v4.9c0,1.21-.34,2.15-1.02,2.82s-1.62,1-2.83,1-2.14-.33-2.82-1-1.02-1.6-1.02-2.82v-4.9c0-.22.07-.39.21-.53.14-.14.31-.21.51-.21.22,0,.39.07.52.21.13.14.2.31.2.53v4.9c0,.82.21,1.43.63,1.85.42.42,1.01.63,1.76.63s1.36-.21,1.78-.63c.42-.42.63-1.04.63-1.85v-4.9c0-.22.07-.39.2-.53.13-.14.31-.21.52-.21Z"/>
      <path class="cls-1" d="M41.11,5.33c.82,0,1.55.2,2.2.61.65.41,1.16.97,1.54,1.69s.57,1.55.57,2.48-.19,1.75-.57,2.48-.89,1.3-1.53,1.71-1.37.62-2.17.62c-.44,0-.86-.07-1.25-.21s-.74-.32-1.06-.54c-.32-.22-.58-.47-.8-.75-.22-.28-.37-.56-.47-.85l.4-.23v5.29c0,.2-.07.38-.2.52-.13.14-.31.22-.52.22-.2,0-.38-.07-.51-.21s-.21-.32-.21-.53V6.16c0-.22.07-.39.21-.53.14-.14.31-.21.51-.21.22,0,.39.07.52.21.13.14.2.31.2.53v1.58l-.27-.14c.08-.3.23-.59.44-.86.21-.28.47-.52.77-.73.31-.21.65-.38,1.03-.5.38-.12.77-.18,1.18-.18ZM40.95,6.66c-.6,0-1.13.15-1.59.45-.46.3-.82.71-1.08,1.22s-.39,1.11-.39,1.78.13,1.25.39,1.78c.26.53.62.94,1.08,1.24s.99.45,1.59.45,1.13-.15,1.58-.45.82-.71,1.08-1.24c.26-.53.4-1.12.4-1.78s-.13-1.27-.4-1.78-.62-.92-1.08-1.22c-.46-.3-.98-.45-1.58-.45Z"/>
      <path class="cls-1" d="M52.16,5.33c.82,0,1.55.2,2.2.61.65.41,1.16.97,1.54,1.69s.57,1.55.57,2.48-.19,1.75-.57,2.48-.89,1.3-1.53,1.71-1.37.62-2.17.62c-.44,0-.86-.07-1.25-.21s-.74-.32-1.06-.54c-.32-.22-.58-.47-.8-.75-.22-.28-.37-.56-.47-.85l.4-.23v5.29c0,.2-.07.38-.2.52-.13.14-.31.22-.52.22-.2,0-.38-.07-.51-.21s-.21-.32-.21-.53V6.16c0-.22.07-.39.21-.53.14-.14.31-.21.51-.21.22,0,.39.07.52.21.13.14.2.31.2.53v1.58l-.27-.14c.08-.3.23-.59.44-.86.21-.28.47-.52.77-.73.31-.21.65-.38,1.03-.5.38-.12.77-.18,1.18-.18ZM52,6.66c-.6,0-1.13.15-1.59.45-.46.3-.82.71-1.08,1.22s-.39,1.11-.39,1.78.13,1.25.39,1.78c.26.53.62.94,1.08,1.24s.99.45,1.59.45,1.13-.15,1.58-.45.82-.71,1.08-1.24c.26-.53.4-1.12.4-1.78s-.13-1.27-.4-1.78-.62-.92-1.08-1.22c-.46-.3-.98-.45-1.58-.45Z"/>
      <path class="cls-1" d="M59.27,4.12c-.3,0-.52-.06-.67-.18-.14-.12-.22-.31-.22-.56v-.25c0-.25.08-.44.23-.56.16-.12.38-.18.67-.18s.5.06.65.18c.14.12.22.31.22.56v.25c0,.25-.08.44-.23.56s-.37.18-.66.18ZM60.01,14.04c0,.2-.07.38-.21.52-.14.14-.31.21-.51.21-.22,0-.39-.07-.53-.21-.14-.14-.21-.32-.21-.52v-7.97c0-.2.07-.38.21-.52s.32-.22.53-.22c.2,0,.38.07.51.22s.21.32.21.52v7.97Z"/>
    </g>
  </g>
</svg>
