<?xml version="1.0" encoding="UTF-8"?>
<svg id="Laag_2" data-name="Laag 2" xmlns="http://www.w3.org/2000/svg" viewBox="0 0 471.34 306.14">
  <defs>
    <style>
      .cls-1 {
        fill: #fff;
      }
    </style>
  </defs>
  <g id="Laag_1-2" data-name="Laag 1">
    <g>
      <path class="cls-1" d="M471.34,0v306.14H0V0h471.34ZM279.7,41.8c-18.83-14.02-47.19-19.31-69.97-12.54s-36.83,23.38-54.22,38.77c-11.33,10.02-24.09,19.99-35.14,30.68-1.93,1.87-6.23,6.09-6.71,8.41-.43,2.07-.82,6.58-.96,8.87-.74,12.27,2.03,31.34,0,42.33-.64,3.43-7.29,10.29-10.52,11.41s-10.59,1.52-13.85.92c-2.32-.42-8.06-3.87-9.22-5.89-.68-1.19-2.51-7.16-2.68-8.67-1.45-13.07,2.73-36.32-1.45-47.68-3.4-9.22-17.12-9.93-23.17-2.64-2.52,3.04-3.11,7.14-3.4,10.98-.85,11.31-1.4,44.95,1.12,54.88,4.55,17.9,25.94,29.15,43.76,25.49,6.2-1.28,10.56-5.27,15.44-8.01,7.95-4.47,4.57,4.05,11.99,6.64,10.15,3.54,19.32-3.1,20.72-13.27,1.91-13.96-1.88-32.29.03-46.08.11-.83.06-1.65.74-2.29,17.28-15.46,34.96-30.04,52.94-44.62,12.23-9.93,17.4-16.91,35.26-16.93,20.83-.03,31.27,14.55,44.52,27.7,2.2,2.18,10.6,8.29,10.96,10.64.48,3.15-3.89,5.54-5.5,7.81-2.89,4.07-5.16,10.58-5.62,15.55-1.88,19.98,2.3,44.02-.08,63.42-.87,7.13-11.53,18.55-17.06,23.01-15.19,12.25-35.23,13.4-50.65.76-9.49-7.78-15.61-18.26-14.01-30.98,4.15-1.06,5.46,2.22,8.12,3.61,7.38,3.86,22.29,3.16,29.9,0,26.48-11.03,35.44-45.01,22.17-69.4-2.34-4.3-6.76-9.61-10.05-12.85-1.75-1.73-9.56-6.19-12.11-7.34-29.39-13.24-64.1,6.39-66.05,38.72-1.35,22.24-1.57,55.78.04,77.88,1.12,15.35,12.37,32.54,25.01,41.53,34.79,24.75,87.37,11.88,106-26.27,8.22-16.82,4.03-25.17,5.9-41.72.91-8.01,4.7-2.61,7.31-1.23,18.99,10.01,44.83-.43,54.12-19.03,11.22-22.45,6.17-47.76-12.23-64.4-9.58-8.67-19.37-16.51-28.75-25.7-12.84-12.57-28.9-32.28-42.6-42.47ZM400.06,62.15c-15.26,1.48-19.42,22.28-4.03,27.83,17.97,6.48,28.37-19.06,11.21-26.32-2.32-.98-4.65-1.76-7.18-1.52ZM398.51,101.47c-5.87,1.11-10.35,6.52-11.07,12.37-2.63,21.68,1.82,48.06-.11,70.25,1.4,15.83,22.93,16.93,27.84,2.81-1.22-23.31,2.24-49.44.21-72.42-.76-8.62-8.18-14.65-16.87-13.02Z"/>
      <path d="M279.7,41.8c13.7,10.2,29.76,29.91,42.6,42.47,9.38,9.18,19.17,17.03,28.75,25.7,18.4,16.64,23.45,41.95,12.23,64.4-9.29,18.59-35.13,29.04-54.12,19.03-2.61-1.38-6.4-6.78-7.31,1.23-1.88,16.55,2.31,24.9-5.9,41.72-18.64,38.15-71.21,51.02-106,26.27-12.64-8.99-23.89-26.19-25.01-41.53-1.61-22.11-1.39-55.64-.04-77.88,1.96-32.33,36.66-51.96,66.05-38.72,2.55,1.15,10.36,5.62,12.11,7.34,3.29,3.24,7.71,8.55,10.05,12.85,13.28,24.4,4.31,58.37-22.17,69.4-7.61,3.17-22.52,3.87-29.9,0-2.65-1.39-3.97-4.67-8.12-3.61-1.6,12.72,4.53,23.2,14.01,30.98,15.42,12.64,35.46,11.49,50.65-.76,5.54-4.46,16.19-15.89,17.06-23.01,2.38-19.4-1.8-43.44.08-63.42.47-4.96,2.74-11.48,5.62-15.55,1.61-2.27,5.99-4.67,5.5-7.81-.36-2.36-8.76-8.46-10.96-10.64-13.25-13.15-23.69-27.73-44.52-27.7-17.86.02-23.02,7-35.26,16.93-17.97,14.58-35.66,29.16-52.94,44.62-.68.64-.62,1.46-.74,2.29-1.91,13.79,1.89,32.13-.03,46.08-1.4,10.18-10.57,16.82-20.72,13.27-7.42-2.59-4.04-11.11-11.99-6.64-4.87,2.74-9.23,6.73-15.44,8.01-17.82,3.67-39.21-7.59-43.76-25.49-2.52-9.92-1.97-43.56-1.12-54.88.29-3.84.88-7.94,3.4-10.98,6.05-7.29,19.77-6.58,23.17,2.64,4.19,11.36,0,34.61,1.45,47.68.17,1.51,2,7.49,2.68,8.67,1.16,2.02,6.9,5.46,9.22,5.89,3.26.6,10.71.16,13.85-.92s9.89-7.98,10.52-11.41c2.04-10.98-.73-30.06,0-42.33.14-2.29.53-6.8.96-8.87.49-2.32,4.78-6.54,6.71-8.41,11.05-10.7,23.81-20.66,35.14-30.68,17.39-15.39,30.79-31.81,54.22-38.77s51.14-1.48,69.97,12.54ZM334.68,132.76c-6.24-5.58-11.99-7.52-20.36-5.04-17.97,5.31-19.22,34.79-1.63,41.76,13.32,5.28,27.97-2.91,29.27-17.17.81-8.87-.84-13.79-7.28-19.55ZM223.66,131.06c-7.23-5.49-19.81-5.87-26.5.55-8.27,7.94-8.74,24.85-.78,33.12.26.27,4.39,3.7,4.65,3.86,5.07,3.22,14.8,3.19,20.1.56,14.22-7.06,14.79-28.8,2.53-38.1Z"/>
      <path d="M398.51,101.47c8.69-1.64,16.11,4.4,16.87,13.02,2.03,22.98-1.43,49.11-.21,72.42-4.91,14.11-26.45,13.02-27.84-2.81,1.93-22.19-2.52-48.56.11-70.25.71-5.85,5.19-11.27,11.07-12.37Z"/>
      <path d="M400.06,62.15c2.52-.24,4.86.54,7.18,1.52,17.16,7.26,6.77,32.8-11.21,26.32-15.39-5.55-11.24-26.36,4.03-27.83Z"/>
      <path class="cls-1" d="M334.68,132.76c6.44,5.76,8.08,10.68,7.28,19.55-1.3,14.26-15.95,22.45-29.27,17.17-17.59-6.98-16.34-36.46,1.63-41.76,8.37-2.47,14.13-.54,20.36,5.04Z"/>
      <path class="cls-1" d="M223.66,131.06c12.25,9.3,11.69,31.04-2.53,38.1-5.3,2.63-15.03,2.65-20.1-.56-.26-.16-4.39-3.6-4.65-3.86-7.96-8.28-7.48-25.18.78-33.12,6.69-6.43,19.26-6.04,26.5-.55Z"/>
    </g>
  </g>
</svg>